<svg width="24" height="24" viewBox="0 0 24 24" fill="none" xmlns="http://www.w3.org/2000/svg">
<g clip-path="url(#clip0_2_2081)">
<path d="M24 12C24 5.37244 18.6276 0 12 0C5.37244 0 0 5.37244 0 12C0 17.9893 4.38844 22.9538 10.1244 23.8542V15.4684H7.07911V12H10.1262V9.35644C10.1262 6.34844 11.9173 4.68711 14.6587 4.68711C15.9707 4.68711 17.3449 4.92178 17.3449 4.92178V7.87556H15.8311C14.3404 7.87556 13.8756 8.80089 13.8756 9.75111V12H17.2044L16.672 15.4684H13.8756V23.8542C19.6116 22.9538 24 17.9893 24 12Z" fill="black"/>
</g>
<defs>
<clipPath id="clip0_2_2081">
<rect width="24" height="24" fill="white"/>
</clipPath>
</defs>
</svg>
