<svg width="24" height="24" viewBox="0 0 24 24" fill="none" xmlns="http://www.w3.org/2000/svg">
<path d="M22.2231 0H1.77156C0.792 0 0 0.773333 0 1.72978V22.2658C0 23.2222 0.792 24 1.77156 24H22.2231C23.2027 24 24 23.2222 24 22.2702V1.72978C24 0.773333 23.2036 0 22.2231 0ZM7.12089 20.4516H3.55733V8.99556H7.12L7.12089 20.4516ZM5.33778 7.43467C5.0633 7.44037 4.79045 7.39122 4.53521 7.29013C4.27996 7.18903 4.04747 7.038 3.85134 6.8459C3.65521 6.6538 3.49939 6.42449 3.39301 6.1714C3.28664 5.91831 3.23185 5.64654 3.23185 5.372C3.23185 5.09746 3.28664 4.82569 3.39301 4.5726C3.49939 4.31951 3.65521 4.0902 3.85134 3.8981C4.04747 3.706 4.27996 3.55497 4.53521 3.45387C4.79045 3.35278 5.0633 3.30364 5.33778 3.30933C5.88471 3.30933 6.40925 3.5266 6.79599 3.91334C7.18273 4.30009 7.4 4.82462 7.4 5.37156C7.4 5.91849 7.18273 6.44303 6.79599 6.82977C6.40925 7.21651 5.88471 7.43378 5.33778 7.43378V7.43467ZM20.4507 20.4516H16.8933V14.8827C16.8933 13.5564 16.8693 11.8453 15.0409 11.8453C13.1893 11.8453 12.9084 13.2942 12.9084 14.7893V20.4516H9.35556V8.99556H12.768V10.5609H12.8151C13.288 9.66133 14.4507 8.70933 16.1804 8.70933C19.7849 8.70933 20.4507 11.0809 20.4507 14.1653V20.4516Z" fill="black"/>
</svg>
