<svg width="12" height="17" viewBox="0 0 12 17" fill="none" xmlns="http://www.w3.org/2000/svg">
<g clip-path="url(#clip0_2_1400)">
<path fill-rule="evenodd" clip-rule="evenodd" d="M6.36635 15.9474C6.33122 16.017 6.27719 16.0752 6.21049 16.1154C6.14379 16.1555 6.06715 16.1758 5.98941 16.1741C5.91515 16.1775 5.8415 16.1592 5.77736 16.1215C5.71322 16.0838 5.66134 16.0283 5.628 15.9616L1.4873 9.00008C0.967769 8.13981 0.697195 7.15137 0.705884 6.1455C0.699755 5.18302 0.944299 4.23563 1.4153 3.39716C1.86191 2.59832 2.5046 1.9273 3.28235 1.44783C4.07487 0.959736 4.98755 0.703603 5.91741 0.708332C6.8633 0.708332 7.74141 0.954832 8.55177 1.44854C9.32962 1.9275 9.97256 2.59803 10.4195 3.39646C10.8912 4.23747 11.1358 5.18755 11.1289 6.15258C11.1289 7.14425 10.8826 8.06862 10.3906 8.92429L6.36635 15.9474ZM2.22565 8.53116L5.98941 14.8445L9.65224 8.47096C10.0543 7.76802 10.264 6.97087 10.26 6.16037C10.26 5.33516 10.0624 4.56946 9.66706 3.86537C9.29495 3.19487 8.75602 2.63259 8.10282 2.23337C7.44635 1.82605 6.68924 1.61158 5.91741 1.61429C5.1353 1.61429 4.40682 1.82112 3.7313 2.23337C3.07847 2.63251 2.5398 3.19453 2.16777 3.86466C1.77477 4.55984 1.57032 5.34627 1.57482 6.1455C1.57037 6.98569 1.79546 7.81104 2.22565 8.53187V8.53116ZM5.92447 8.86408C6.40235 8.86408 6.83859 8.74012 7.23459 8.49362C7.62877 8.24856 7.95295 7.9052 8.17553 7.497C8.40706 7.07908 8.52283 6.62575 8.52283 6.13771C8.52283 5.64896 8.40706 5.19633 8.17553 4.77841C7.95284 4.37003 7.62558 4.02867 7.22753 3.78958C6.83266 3.54942 6.37914 3.42388 5.91741 3.42691C5.44447 3.42691 5.00753 3.54733 4.6073 3.78958C4.20926 4.0287 3.88201 4.37005 3.6593 4.77841C3.42744 5.19625 3.30754 5.66727 3.3113 6.1455C3.30678 6.61589 3.42378 7.07944 3.65091 7.49095C3.87804 7.90247 4.20754 8.24791 4.6073 8.49362C5.00286 8.73905 5.45942 8.86746 5.92447 8.86408ZM5.04212 7.71658C5.30683 7.87737 5.59906 7.95741 5.91741 7.95741C6.23577 7.95741 6.528 7.87737 6.79271 7.71658C7.05883 7.55508 7.26847 7.33408 7.42306 7.05146C7.57694 6.76954 7.65459 6.46496 7.65459 6.13771C7.65459 5.81046 7.57694 5.50871 7.42306 5.23104C7.26777 4.95479 7.05882 4.73521 6.79341 4.57441C6.5294 4.41399 6.22605 4.33059 5.91741 4.33358C5.59906 4.33358 5.30683 4.41362 5.04212 4.57441C4.77794 4.73395 4.56048 4.96072 4.41177 5.23175C4.25718 5.508 4.18024 5.81258 4.18024 6.1455C4.18024 6.47771 4.25788 6.78229 4.41177 7.05925C4.56635 7.3355 4.776 7.55508 5.04141 7.71587L5.04212 7.71658Z" fill="black"/>
<path d="M5.628 15.9616L5.78259 15.8766L5.77906 15.8716L5.628 15.9616ZM1.48729 9.00009L1.63906 8.90942V8.908L1.48729 9.00009ZM1.41529 3.39717L1.26211 3.30863L1.26141 3.31004L1.41529 3.39717ZM8.55176 1.44784L8.64423 1.29696L8.64353 1.29625L8.55176 1.44784ZM10.4195 3.39575L10.5734 3.30934L10.5727 3.30792L10.4195 3.39575ZM5.98941 14.8453L5.83835 14.9359L5.99223 15.1952L6.14258 14.9331L5.98941 14.8453ZM9.65153 8.47167L9.8047 8.56021L9.80541 8.5595L9.65153 8.47167ZM5.98941 16.3505C6.22094 16.3505 6.40306 16.2371 6.51882 16.036L6.21317 15.8589C6.15529 15.9588 6.08611 15.9963 5.98941 15.9963V16.3505ZM5.47341 16.0473C5.52264 16.1411 5.59663 16.2195 5.68729 16.274C5.7794 16.326 5.88371 16.3524 5.98941 16.3505V15.9963C5.94622 15.9981 5.90333 15.9883 5.86517 15.968C5.82971 15.9458 5.8011 15.9142 5.78259 15.8766L5.47341 16.0473ZM1.33623 9.09075L5.47623 16.053L5.77906 15.8716L1.63906 8.908L1.33553 9.09075H1.33623ZM0.529409 6.1455C0.529409 7.21367 0.79835 8.19684 1.33623 9.09146L1.63906 8.908C1.13625 8.07551 0.873757 7.11892 0.88235 6.1455H0.529409ZM1.26141 3.31004C0.77553 4.17511 0.523205 5.15251 0.529409 6.1455H0.88235C0.88235 5.18854 1.11106 4.30242 1.56917 3.48359L1.26141 3.31004ZM3.18988 1.29767C2.38704 1.79252 1.72347 2.48426 1.26211 3.30863L1.56847 3.48429C2.00084 2.71169 2.62289 2.06285 3.37553 1.59942L3.18988 1.29767ZM5.91741 0.531252C4.93906 0.531252 4.02917 0.786252 3.19129 1.29696L3.37411 1.60013C4.13887 1.12856 5.01981 0.880998 5.91741 0.885419V0.531252ZM8.64353 1.29625C7.8236 0.79126 6.87944 0.526773 5.91741 0.531252V0.885419C6.83082 0.885419 7.67717 1.12342 8.4607 1.60013L8.64353 1.29625ZM10.5727 3.30792C10.1111 2.48346 9.44733 1.79172 8.64423 1.29696L8.45929 1.59942C9.21194 2.06283 9.834 2.71167 10.2663 3.48429L10.5727 3.30792ZM11.3054 6.15259C11.3122 5.15728 11.0599 4.17674 10.5734 3.30934L10.2656 3.48359C10.7225 4.29799 10.9592 5.21806 10.9525 6.15259H11.3054ZM10.5431 9.01284C11.047 8.14478 11.3102 7.15719 11.3054 6.15259H10.9525C10.9573 7.09502 10.7104 8.02155 10.2374 8.83575L10.5431 9.01284ZM6.51953 16.0353L10.5431 9.01284L10.2374 8.83575L6.21317 15.8589L6.51882 16.036L6.51953 16.0353ZM6.14117 14.7532L2.37741 8.4405L2.07388 8.62254L5.83835 14.9352L6.14117 14.7539V14.7532ZM9.49905 8.38242L5.83764 14.756L6.14329 14.9331L9.80541 8.5595L9.49976 8.38242H9.49905ZM10.0835 6.16038C10.0875 6.94037 9.88556 7.7075 9.49835 8.38384L9.80541 8.5595C10.2228 7.82983 10.4405 7.00169 10.4365 6.16038H10.0835ZM9.51247 3.95179C9.89364 4.62967 10.0842 5.36492 10.0842 6.16038H10.4372C10.4372 5.30471 10.2311 4.51067 9.82023 3.77896L9.51247 3.95179ZM8.01176 2.38496C8.63897 2.76822 9.1565 3.30805 9.51388 3.95179L9.82094 3.77754C9.43395 3.08119 8.8739 2.49723 8.19529 2.0825L8.01176 2.38496ZM5.91811 1.79138C6.66635 1.79138 7.36306 1.989 8.01176 2.38496L8.196 2.0825C7.51164 1.65828 6.72251 1.43498 5.91811 1.43792V1.79138ZM3.82376 2.38496C4.45275 1.99429 5.17839 1.78863 5.91811 1.79138V1.43792C5.11365 1.43519 4.32452 1.65803 3.64023 2.0825L3.82376 2.38496ZM2.32235 3.95179C2.67973 3.30805 3.19726 2.76822 3.82447 2.38496L3.64023 2.0825C2.96188 2.49732 2.40138 3.08128 2.01459 3.77754L2.32235 3.95179ZM1.75058 6.1455C1.75058 5.35996 1.94117 4.62967 2.32235 3.95179L2.01388 3.77825C1.60588 4.49975 1.39341 5.31594 1.39764 6.1455H1.75058ZM2.37741 8.4405C1.9632 7.74718 1.74639 6.95386 1.75058 6.1455H1.39764C1.39764 7.03304 1.62353 7.85967 2.07388 8.62184L2.37741 8.4405ZM7.14211 8.34346C6.77715 8.57207 6.35468 8.69127 5.92447 8.687V9.04117C6.43411 9.04117 6.90353 8.90871 7.32776 8.6445L7.14141 8.34346H7.14211ZM8.02164 7.41129C7.81353 7.79319 7.51023 8.11437 7.14141 8.34346L7.32776 8.6445C7.74756 8.38356 8.09288 8.01801 8.33011 7.58342L8.02164 7.41129ZM8.34635 6.13771C8.34635 6.59671 8.23835 7.02029 8.02164 7.41129L8.33011 7.58342C8.57717 7.13859 8.69929 6.6555 8.69929 6.13842H8.34635V6.13771ZM8.02164 4.86484C8.23835 5.25584 8.34635 5.67942 8.34635 6.13771H8.69929C8.69929 5.62063 8.57647 5.13754 8.32941 4.69271L8.02164 4.86484ZM7.13647 3.94117C7.51058 4.16642 7.80423 4.47313 8.02164 4.86484L8.32941 4.69271C8.09197 4.25698 7.74304 3.89266 7.31858 3.63729L7.13647 3.94117ZM5.91741 3.604C6.35858 3.604 6.76376 3.71592 7.13647 3.94117L7.31858 3.63729C6.89616 3.38073 6.41117 3.24662 5.91741 3.24984V3.604ZM4.69835 3.94117C5.06574 3.71766 5.48778 3.60093 5.91741 3.604V3.24984C5.4127 3.24984 4.9447 3.37946 4.51623 3.63729L4.69835 3.94117ZM3.81317 4.86484C4.02093 4.48329 4.32654 4.1644 4.69835 3.94117L4.51623 3.63729C4.09154 3.89259 3.74237 4.25691 3.5047 4.69271L3.81317 4.86484ZM3.48847 6.1455C3.48847 5.68084 3.59647 5.25513 3.81317 4.86484L3.5047 4.69271C3.25854 5.13657 3.13111 5.63684 3.13482 6.14479H3.48776L3.48847 6.1455ZM3.81317 7.41767C3.59596 7.02939 3.484 6.59075 3.48847 6.1455H3.13553C3.13553 6.66754 3.25835 7.15134 3.50541 7.59121L3.81317 7.41767ZM4.69976 8.34275C4.32893 8.11676 4.02294 7.79799 3.81176 7.41767L3.50541 7.59121C3.75176 8.03038 4.08776 8.38242 4.51411 8.6445L4.69976 8.34275ZM5.92447 8.687C5.49206 8.69037 5.06751 8.57103 4.69976 8.34275L4.51411 8.6445C4.93749 8.90708 5.42677 9.04456 5.92447 9.04117V8.687ZM5.91741 7.78034C5.63011 7.78034 5.36964 7.70879 5.13247 7.56429L4.94964 7.86746C5.24329 8.04596 5.56729 8.1345 5.91741 8.1345V7.78034ZM6.70164 7.56429C6.46538 7.70819 6.19377 7.78302 5.91741 7.78034V8.1345C6.26682 8.1345 6.59082 8.04596 6.88447 7.86746L6.70164 7.56429ZM7.26847 6.96646C7.128 7.22146 6.93953 7.41979 6.70164 7.56429L6.88447 7.86746C7.17741 7.69038 7.40823 7.44529 7.57764 7.13717L7.26847 6.96646ZM7.47811 6.13771C7.47811 6.43521 7.40753 6.71146 7.26847 6.96646L7.57764 7.13646C7.74706 6.82834 7.83106 6.494 7.83106 6.13771H7.47811ZM7.26917 5.31817C7.40823 5.5675 7.47811 5.84021 7.47811 6.13771H7.83106C7.83106 5.78142 7.74635 5.44921 7.57694 5.14534L7.26847 5.31817H7.26917ZM6.70164 4.726C6.94023 4.87121 7.1287 5.06742 7.26847 5.31817L7.57694 5.14534C7.41347 4.84757 7.17461 4.59835 6.88447 4.42284L6.70164 4.726ZM5.91741 4.50996C6.2047 4.50996 6.46447 4.58221 6.70164 4.726L6.88447 4.42284C6.59305 4.24551 6.25821 4.15305 5.91741 4.15579V4.50996ZM5.13317 4.726C5.36964 4.58197 5.64081 4.50715 5.91741 4.50996V4.15579C5.56729 4.15579 5.244 4.24504 4.95035 4.42284L5.13317 4.726ZM4.56564 5.31817C4.70541 5.06742 4.89458 4.87121 5.13317 4.726L4.95035 4.42284C4.65811 4.59992 4.42658 4.84217 4.25788 5.14534L4.56564 5.31817ZM4.3567 6.1455C4.3567 5.84163 4.42729 5.5675 4.56564 5.31817L4.25788 5.14534C4.08847 5.44992 4.00376 5.78425 4.00376 6.1455H4.3567ZM4.56564 6.97284C4.42544 6.72 4.35342 6.43483 4.3567 6.1455H4.00376C4.00376 6.50675 4.08847 6.84109 4.25788 7.14567L4.56564 6.97284ZM5.13247 7.56429C4.89488 7.42072 4.69934 7.21667 4.56564 6.97284L4.25788 7.14567C4.42729 7.44884 4.65811 7.68967 4.94964 7.86746L5.13247 7.56429Z" fill="black"/>
</g>
<defs>
<clipPath id="clip0_2_1400">
<rect width="12" height="17" fill="white"/>
</clipPath>
</defs>
</svg>
