<svg width="20" height="20" viewBox="0 0 20 20" fill="none" xmlns="http://www.w3.org/2000/svg">
<g clip-path="url(#clip0_2_1384)">
<path d="M19.6198 17.878L15.7383 13.9965C17.0635 12.2241 17.6683 10.0156 17.4308 7.81537C17.1934 5.61513 16.1313 3.58649 14.4585 2.13772C12.7856 0.688957 10.626 -0.0723954 8.41444 0.00689122C6.20285 0.0861779 4.10336 1.00022 2.53852 2.56506C0.973683 4.1299 0.0596429 6.22938 -0.0196438 8.44098C-0.0989305 10.6526 0.662422 12.8121 2.11119 14.485C3.55996 16.1579 5.58859 17.2199 7.78884 17.4574C9.98908 17.6948 12.1976 17.0901 13.9699 15.7648L17.8515 19.6375C17.9622 19.7615 18.0987 19.8597 18.2515 19.9254C18.4042 19.9911 18.5694 20.0226 18.7356 20.0177C18.9001 20.0188 19.0631 19.9875 19.2154 19.9253C19.3677 19.8632 19.5062 19.7716 19.6229 19.6557C19.7396 19.5398 19.8322 19.402 19.8954 19.2501C19.9586 19.0983 19.9912 18.9355 19.9911 18.771C19.9979 18.6041 19.9681 18.4378 19.904 18.2835C19.8398 18.1293 19.7429 17.9909 19.6198 17.878ZM2.5022 8.75332C2.50045 7.51659 2.86559 6.30714 3.5514 5.27798C4.23722 4.24883 5.2129 3.44624 6.35498 2.97175C7.49707 2.49726 8.75423 2.37221 9.96741 2.61241C11.1806 2.85261 12.2953 3.44727 13.1704 4.32115C14.0455 5.19503 14.6417 6.30885 14.8836 7.52169C15.1256 8.73453 15.0023 9.99187 14.5294 11.1346C14.0565 12.2774 13.2553 13.2542 12.2272 13.9415C11.199 14.6287 9.99004 14.9956 8.75331 14.9956C7.93282 14.9967 7.12015 14.8361 6.36178 14.523C5.60341 14.2098 4.91423 13.7502 4.33364 13.1704C3.75306 12.5906 3.29247 11.9021 2.97821 11.1442C2.66395 10.3862 2.5022 9.57381 2.5022 8.75332Z" fill="black"/>
</g>
<defs>
<clipPath id="clip0_2_1384">
<rect width="20" height="20" fill="white"/>
</clipPath>
</defs>
</svg>
