<svg width="14" height="14" viewBox="0 0 14 14" fill="none" xmlns="http://www.w3.org/2000/svg">
<path opacity="0.9" fill-rule="evenodd" clip-rule="evenodd" d="M6.91228 0.466667C6.05431 0.478249 5.20702 0.658708 4.4188 0.99774C3.63057 1.33677 2.91684 1.82774 2.31835 2.4426C1.71986 3.05747 1.24835 3.78419 0.930716 4.58129C0.613086 5.37838 0.455566 6.23023 0.467148 7.0882C0.478731 7.94617 0.65919 8.79346 0.998221 9.58168C1.33725 10.3699 1.82822 11.0836 2.44308 11.6821C3.05795 12.2806 3.78468 12.7521 4.58177 13.0698C5.37886 13.3874 6.23071 13.5449 7.08868 13.5333C8.82143 13.5099 10.4739 12.7992 11.6826 11.5574C12.8913 10.3156 13.5572 8.64455 13.5338 6.9118C13.5104 5.17905 12.7997 3.52657 11.5579 2.31787C10.3161 1.10917 8.64503 0.443275 6.91228 0.466667ZM6.89268 10.976H6.85628C6.30095 10.9601 5.90895 10.5504 5.92481 10.0035C5.92477 9.87936 5.9496 9.75651 5.99784 9.64216C6.04607 9.52782 6.11674 9.4243 6.20566 9.33773C6.29458 9.25116 6.39996 9.18328 6.51555 9.13812C6.63115 9.09297 6.75462 9.07143 6.87868 9.0748H6.91135C7.48255 9.0916 7.86988 9.49667 7.85401 10.0604C7.83721 10.5999 7.44335 10.976 6.89268 10.976ZM8.45042 7.03733C8.81255 6.75453 9.10002 6.524 9.23068 6.33827C9.48175 5.9948 9.60868 5.61587 9.60868 5.21267C9.60868 4.49213 9.34921 3.94053 8.83775 3.57187C8.33375 3.20787 7.69255 3.02307 6.93375 3.02307C6.35321 3.02307 5.85575 3.15373 5.45628 3.41133C4.82068 3.81453 4.47721 4.50707 4.43708 5.4684L4.43428 5.53653H6.00321V5.4712C6.00321 5.20987 6.08068 4.95507 6.23375 4.71147C6.38308 4.4744 6.63228 4.3596 6.99535 4.3596C7.36215 4.3596 7.61508 4.4548 7.74855 4.6424C7.88761 4.83747 7.95762 5.05587 7.95762 5.292C7.95762 5.4628 7.88668 5.6364 7.72708 5.85667C7.6529 5.96232 7.56213 6.0553 7.45828 6.132C7.42561 6.15253 6.66681 6.6416 6.32241 7.04573C6.10308 7.3024 6.08908 7.61507 6.07042 8.14427L6.06668 8.27307H7.58801L7.58988 8.20773C7.59268 7.98093 7.60855 7.9324 7.64028 7.8344L7.65148 7.79987C7.70095 7.6412 7.83255 7.48253 8.05188 7.31173L8.45042 7.03733Z" fill="black"/>
</svg>
