<svg width="24" height="20" viewBox="0 0 24 20" fill="none" xmlns="http://www.w3.org/2000/svg">
<path d="M7.55022 19.7504C16.6044 19.7504 21.5591 12.2464 21.5591 5.74148C21.5591 5.53081 21.5538 5.31482 21.544 5.10415C22.5077 4.40745 23.3394 3.54446 24 2.5557C23.1022 2.95482 22.1493 3.21526 21.1733 3.32904C22.2008 2.71305 22.9702 1.7454 23.3387 0.605482C22.3723 1.17849 21.3154 1.58278 20.2133 1.80104C19.4706 1.0125 18.4889 0.490481 17.4199 0.315637C16.3509 0.140793 15.254 0.322853 14.2988 0.83369C13.3436 1.34453 12.5832 2.15571 12.1351 3.1419C11.687 4.1281 11.5761 5.23441 11.8196 6.28993C9.86253 6.19176 7.94797 5.68343 6.2 4.79788C4.45203 3.91234 2.90966 2.66934 1.67289 1.14948C1.04437 2.23326 0.852066 3.51569 1.13506 4.73616C1.41805 5.95662 2.15511 7.02356 3.19644 7.72015C2.41454 7.69533 1.64977 7.48479 0.965333 7.10593V7.16726C0.964769 8.30452 1.35806 9.40689 2.07836 10.287C2.79867 11.167 3.80152 11.7705 4.91644 11.9948C4.192 12.1931 3.43163 12.222 2.69422 12.0793C3.00878 13.0575 3.62097 13.9132 4.44533 14.5267C5.26968 15.1402 6.26504 15.481 7.29244 15.5015C6.27063 16.3039 5.10051 16.8969 3.84914 17.2463C2.59776 17.5958 1.28973 17.6949 0 17.5379C2.25288 18.9833 4.87358 19.7518 7.55022 19.7504Z" fill="black"/>
</svg>
