<svg width="20" height="20" viewBox="0 0 20 20" fill="none" xmlns="http://www.w3.org/2000/svg">
<path fill-rule="evenodd" clip-rule="evenodd" d="M10.2015 0.603077C11.3922 0.603077 12.4292 0.866154 13.303 1.39769C14.123 1.89615 14.7492 2.60538 15.1699 3.50923C15.5699 4.35846 15.7692 5.32462 15.7692 6.40154C15.7692 7.45538 15.5238 8.43154 15.0346 9.31692C14.5453 10.2046 13.8746 10.9038 13.0369 11.4015C12.1862 11.9302 11.203 12.2068 10.2015 12.1992C9.29148 12.1992 8.40148 11.9354 7.54148 11.4146C6.69302 10.9029 5.97993 10.1948 5.46225 9.35C4.89994 8.42923 4.61532 7.44231 4.61532 6.4C4.61532 5.32077 4.82148 4.35231 5.23148 3.51154C5.65456 2.60385 6.28686 1.89308 7.11379 1.39923C7.97686 0.866154 9.00917 0.603077 10.2015 0.603077ZM6.15763 12.5992H5.99763L5.84225 12.6054C5.32148 12.6446 4.79148 12.8823 4.24994 13.2992C3.74686 13.6854 3.26994 14.1892 2.81763 14.8092C2.40956 15.3681 2.07526 15.9772 1.82302 16.6215C1.5684 17.2854 1.4784 17.8546 1.5784 18.34C1.72455 19.0208 2.22532 19.3969 2.91686 19.3969H16.6984L16.8261 19.3931C17.4507 19.3492 17.8984 18.9792 18.0361 18.3469C18.1369 17.8546 18.0476 17.2854 17.793 16.6215C17.5414 15.9783 17.2079 15.3702 16.8007 14.8123C16.3446 14.1892 15.8684 13.6854 15.3661 13.2992C14.7538 12.8392 14.1676 12.5992 13.5999 12.5992H13.4399L13.0546 12.8377C11.7461 13.6223 10.6561 14.0077 9.79917 14.0077C8.88763 14.0077 7.71456 13.5731 6.29532 12.6846L6.15763 12.5992ZM13.6207 13.8815L13.7392 13.8085L13.8084 13.82L13.9192 13.8485C14.1461 13.9162 14.4015 14.0531 14.6861 14.2669C15.0899 14.5769 15.4899 15 15.8792 15.5331C16.2438 16.0408 16.5253 16.5515 16.7215 17.0646C16.8992 17.5277 16.9538 17.8731 16.9099 18.0877C16.8892 18.1846 16.8722 18.1962 16.6992 18.1962H2.85994C2.73994 18.1923 2.72532 18.1715 2.70609 18.0823C2.66302 17.8731 2.71763 17.5285 2.89532 17.0646C3.10985 16.519 3.39372 16.0032 3.73994 15.53C4.12686 15 4.52686 14.5777 4.93609 14.2631L5.07148 14.1631L5.20225 14.0762C5.41763 13.9408 5.61456 13.8569 5.79302 13.82L5.85994 13.8092L5.97763 13.8815C7.44302 14.76 8.71225 15.2069 9.79917 15.2069C10.8861 15.2069 12.1553 14.76 13.6207 13.8815ZM7.69609 2.43538C8.37763 2.01462 9.20686 1.80231 10.2015 1.80231C11.1961 1.80231 12.0322 2.01462 12.7207 2.43308C13.3415 2.81077 13.8092 3.34077 14.1322 4.03462C14.4538 4.71538 14.6153 5.50154 14.6153 6.40077C14.6153 7.24846 14.4222 8.01769 14.0338 8.72077C13.6664 9.40186 13.1208 9.97032 12.4553 10.3654C11.7797 10.7871 10.9978 11.0072 10.2015 11C9.50148 11 8.81148 10.7946 8.12225 10.3769C7.43331 9.96283 6.85417 9.38897 6.43379 8.70385C5.98917 7.97538 5.76917 7.21154 5.76917 6.40077C5.76917 5.50385 5.93532 4.72077 6.26532 4.04538C6.59225 3.34231 7.06379 2.81385 7.69609 2.43538Z" fill="black"/>
</svg>

